<svg xmlns="http://www.w3.org/2000/svg" viewBox="0 0 1200 800" role="img" aria-label="TP Carryvoid Travel Duffle color collection"><defs><linearGradient id="bg" x1="0" y1="0" x2="1" y2="1"><stop stop-color="#fbf8f3"/><stop offset="1" stop-color="#eee7dd"/></linearGradient><filter id="s"><feDropShadow dx="0" dy="10" stdDeviation="10" flood-opacity=".15"/></filter><linearGradient id="to" x1="0" x2="1"><stop stop-color="#1293a0"/><stop offset=".52" stop-color="#1293a0"/><stop offset=".52" stop-color="#f27822"/></linearGradient><linearGradient id="pl" x1="0" x2="1"><stop stop-color="#613a89"/><stop offset=".52" stop-color="#613a89"/><stop offset=".52" stop-color="#9bc52d"/></linearGradient><linearGradient id="po" x1="0" x2="1"><stop stop-color="#ef2e7d"/><stop offset=".52" stop-color="#ef2e7d"/><stop offset=".52" stop-color="#f27822"/></linearGradient></defs><rect width="1200" height="800" rx="38" fill="url(#bg)"/><text x="54" y="58" font-family="Arial,sans-serif" font-size="23" font-weight="700" letter-spacing="3" fill="#111">TP CARRYVOID · TRAVEL DUFFLE</text><text x="54" y="86" font-family="Arial,sans-serif" font-size="12" letter-spacing="2" fill="#777">SIX COLORWAYS · SHARP VECTOR COLLECTION</text><g font-family="Arial,sans-serif" text-anchor="middle"><g transform="translate(75 130)"><rect width="310" height="250" rx="24" fill="#fff"/><g transform="translate(25 34)" filter="url(#s)"><path d="M55 72c10-42 31-61 62-61s52 19 62 61" fill="none" stroke="#171717" stroke-width="13" stroke-linecap="round"/><path d="M31 72h207l29 45-18 103H20L2 117z" fill="#171717"/><path d="M86 72v148M181 72v148" stroke="#3b3b3b" stroke-width="7"/><text x="134" y="158" fill="#f6f1e9" font-size="25" font-weight="700">TP</text><text x="134" y="178" fill="#f6f1e9" font-size="9" font-weight="700" letter-spacing="1.5">CARRYVOID</text></g><text x="155" y="233" font-size="16" font-weight="700">BLACK</text></g><g transform="translate(445 130)"><rect width="310" height="250" rx="24" fill="#fff"/><g transform="translate(25 34)" filter="url(#s)"><path d="M55 72c10-42 31-61 62-61s52 19 62 61" fill="none" stroke="#5b5a32" stroke-width="13" stroke-linecap="round"/><path d="M31 72h207l29 45-18 103H20L2 117z" fill="#5b5a32"/><path d="M86 72v148M181 72v148" stroke="#77764b" stroke-width="7"/><text x="134" y="158" fill="#fff" font-size="25" font-weight="700">TP</text><text x="134" y="178" fill="#fff" font-size="9" font-weight="700" letter-spacing="1.5">CARRYVOID</text></g><text x="155" y="233" font-size="16" font-weight="700">OLIVE</text></g><g transform="translate(815 130)"><rect width="310" height="250" rx="24" fill="#fff"/><g transform="translate(25 34)" filter="url(#s)"><path d="M55 72c10-42 31-61 62-61s52 19 62 61" fill="none" stroke="#9a806c" stroke-width="13" stroke-linecap="round"/><path d="M31 72h207l29 45-18 103H20L2 117z" fill="#9a806c"/><path d="M86 72v148M181 72v148" stroke="#b69c89" stroke-width="7"/><text x="134" y="158" fill="#fff" font-size="25" font-weight="700">TP</text><text x="134" y="178" fill="#fff" font-size="9" font-weight="700" letter-spacing="1.5">CARRYVOID</text></g><text x="155" y="233" font-size="16" font-weight="700">TAUPE</text></g><g transform="translate(75 435)"><rect width="310" height="250" rx="24" fill="#fff"/><g transform="translate(25 34)" filter="url(#s)"><path d="M55 72c10-42 31-61 62-61s52 19 62 61" fill="none" stroke="#333" stroke-width="13" stroke-linecap="round"/><path d="M31 72h207l29 45-18 103H20L2 117z" fill="url(#to)"/><path d="M86 72v148M181 72v148" stroke="#fff" stroke-opacity=".45" stroke-width="7"/><text x="134" y="158" fill="#fff" font-size="25" font-weight="700">TP</text><text x="134" y="178" fill="#fff" font-size="9" font-weight="700" letter-spacing="1.5">CARRYVOID</text></g><text x="155" y="233" font-size="15" font-weight="700">TURQUOISE + ORANGE</text></g><g transform="translate(445 435)"><rect width="310" height="250" rx="24" fill="#fff"/><g transform="translate(25 34)" filter="url(#s)"><path d="M55 72c10-42 31-61 62-61s52 19 62 61" fill="none" stroke="#333" stroke-width="13" stroke-linecap="round"/><path d="M31 72h207l29 45-18 103H20L2 117z" fill="url(#pl)"/><path d="M86 72v148M181 72v148" stroke="#fff" stroke-opacity=".45" stroke-width="7"/><text x="134" y="158" fill="#fff" font-size="25" font-weight="700">TP</text><text x="134" y="178" fill="#fff" font-size="9" font-weight="700" letter-spacing="1.5">CARRYVOID</text></g><text x="155" y="233" font-size="15" font-weight="700">PURPLE + LIME</text></g><g transform="translate(815 435)"><rect width="310" height="250" rx="24" fill="#fff"/><g transform="translate(25 34)" filter="url(#s)"><path d="M55 72c10-42 31-61 62-61s52 19 62 61" fill="none" stroke="#333" stroke-width="13" stroke-linecap="round"/><path d="M31 72h207l29 45-18 103H20L2 117z" fill="url(#po)"/><path d="M86 72v148M181 72v148" stroke="#fff" stroke-opacity=".45" stroke-width="7"/><text x="134" y="158" fill="#fff" font-size="25" font-weight="700">TP</text><text x="134" y="178" fill="#fff" font-size="9" font-weight="700" letter-spacing="1.5">CARRYVOID</text></g><text x="155" y="233" font-size="15" font-weight="700">PINK + ORANGE</text></g></g></svg>