<svg xmlns="http://www.w3.org/2000/svg" viewBox="0 0 1200 760"><rect width="1200" height="760" fill="#ead8c4"/><style>.b{stroke:#211d19;stroke-width:3}.s{fill:none;stroke-width:16;stroke-linecap:round}.l{font:34px Georgia,serif}.t{font:15px Georgia,serif}</style><g transform="translate(40 105)"><g><rect class="b" rx="36" width="330" height="230" fill="#171717"/><path class="s" d="M70 20V-35Q165-72 260-35V20" stroke="#171717"/><path class="s" d="M80 20V210M250 20V210" stroke="#0b0b0b"/><text x="146" y="106" fill="#c9aa80" class="l">T</text><text x="161" y="124" fill="#c9aa80" class="l">P</text><text x="225" y="198" fill="#f0e5d8" class="t">Lose the air.</text><text x="225" y="217" fill="#f0e5d8" class="t">Keep the trip.</text></g><g transform="translate(385)"><rect class="b" rx="36" width="330" height="230" fill="#5b5a32"/><path class="s" d="M70 20V-35Q165-72 260-35V20" stroke="#5b5a32"/><path class="s" d="M80 20V210M250 20V210" stroke="#43451e"/><text x="146" y="106" fill="#d6bc91" class="l">T</text><text x="161" y="124" fill="#d6bc91" class="l">P</text><text x="225" y="198" fill="#f0e5d8" class="t">Lose the air.</text><text x="225" y="217" fill="#f0e5d8" class="t">Keep the trip.</text></g><g transform="translate(770)"><rect class="b" rx="36" width="330" height="230" fill="#9a806c"/><path class="s" d="M70 20V-35Q165-72 260-35V20" stroke="#9a806c"/><path class="s" d="M80 20V210M250 20V210" stroke="#7f6653"/><text x="146" y="106" fill="#efe0cb" class="l">T</text><text x="161" y="124" fill="#efe0cb" class="l">P</text><text x="225" y="198" fill="#fff5ea" class="t">Lose the air.</text><text x="225" y="217" fill="#fff5ea" class="t">Keep the trip.</text></g></g><g transform="translate(40 440)"><g><rect class="b" rx="36" width="330" height="230" fill="#1293a0"/><path class="s" d="M70 20V-35Q165-72 260-35V20M80 20V210M250 20V210" stroke="#f27822"/><text x="146" y="106" fill="#f1d5a6" class="l">T</text><text x="161" y="124" fill="#f1d5a6" class="l">P</text><text x="225" y="198" fill="#fff2df" class="t">Lose the air.</text><text x="225" y="217" fill="#fff2df" class="t">Keep the trip.</text></g><g transform="translate(385)"><rect class="b" rx="36" width="330" height="230" fill="#613a89"/><path class="s" d="M70 20V-35Q165-72 260-35V20M80 20V210M250 20V210" stroke="#9bc52d"/><text x="146" y="106" fill="#f1d5a6" class="l">T</text><text x="161" y="124" fill="#f1d5a6" class="l">P</text><text x="225" y="198" fill="#fff2df" class="t">Lose the air.</text><text x="225" y="217" fill="#fff2df" class="t">Keep the trip.</text></g><g transform="translate(770)"><rect class="b" rx="36" width="330" height="230" fill="#ef2e7d"/><path class="s" d="M70 20V-35Q165-72 260-35V20M80 20V210M250 20V210" stroke="#f27822"/><text x="146" y="106" fill="#f1d5a6" class="l">T</text><text x="161" y="124" fill="#f1d5a6" class="l">P</text><text x="225" y="198" fill="#fff2df" class="t">Lose the air.</text><text x="225" y="217" fill="#fff2df" class="t">Keep the trip.</text></g></g></svg>